<svg xmlns="http://www.w3.org/2000/svg" xmlns:xlink="http://www.w3.org/1999/xlink" width="1080" zoomAndPan="magnify" viewBox="0 0 810 809.999993" height="1080" preserveAspectRatio="xMidYMid meet" version="1.0"><defs><g/></defs><g fill="#458cf4" fill-opacity="1"><g transform="translate(34.505242, 605.317355)"><g><path d="M 381.875 -64.703125 C 382.71875 -55.816406 382.609375 -46.929688 381.546875 -38.046875 C 380.492188 -29.171875 377.644531 -20.71875 373 -12.6875 C 368.34375 -4.65625 361.046875 1.15625 351.109375 4.75 C 341.171875 8.351562 332.1875 6.132812 324.15625 -1.90625 C 316.957031 -3.59375 310.820312 -7.289062 305.75 -13 C 300.675781 -18.707031 298.140625 -25.367188 298.140625 -32.984375 C 296.867188 -87.117188 289.46875 -141.039062 275.9375 -194.75 C 272.976562 -208.28125 270.019531 -221.703125 267.0625 -235.015625 C 264.101562 -248.335938 261.140625 -261.554688 258.171875 -274.671875 C 250.566406 -252.679688 243.164062 -229.101562 235.96875 -203.9375 C 228.78125 -178.78125 222.863281 -157.320312 218.21875 -139.5625 C 213.988281 -122.21875 209.863281 -104.453125 205.84375 -86.265625 C 201.820312 -68.085938 198.546875 -52.226562 196.015625 -38.6875 C 195.585938 -37.425781 195.054688 -36.898438 194.421875 -37.109375 C 193.785156 -37.316406 193.46875 -37.632812 193.46875 -38.0625 C 193.050781 -35.101562 192.414062 -32.140625 191.5625 -29.171875 C 190.71875 -26.210938 189.875 -23.046875 189.03125 -19.671875 C 187.34375 -15.441406 185.332031 -11.632812 183 -8.25 C 180.675781 -4.863281 176.976562 -2.535156 171.90625 -1.265625 C 168.101562 -0.421875 165.351562 -0.632812 163.65625 -1.90625 C 159.851562 -1.90625 156.894531 -2.75 154.78125 -4.4375 C 152.238281 -2.75 150.335938 -3.382812 149.078125 -6.34375 C 146.109375 -11 143.882812 -15.648438 142.40625 -20.296875 C 140.925781 -24.953125 139.550781 -29.816406 138.28125 -34.890625 L 111.015625 -131.9375 C 108.046875 -142.507812 105.1875 -153.082031 102.4375 -163.65625 C 99.695312 -174.226562 97.054688 -184.800781 94.515625 -195.375 C 93.671875 -197.914062 92.828125 -200.453125 91.984375 -202.984375 C 91.140625 -205.523438 90.289062 -208.273438 89.4375 -211.234375 C 90.707031 -184.585938 91.867188 -157.519531 92.921875 -130.03125 C 93.984375 -102.550781 94.726562 -75.488281 95.15625 -48.84375 C 95.570312 -39.539062 95.25 -29.921875 94.1875 -19.984375 C 93.132812 -10.046875 87.535156 -2.75 77.390625 1.90625 C 72.734375 4.019531 69.140625 3.597656 66.609375 0.640625 C 65.765625 -0.210938 65.128906 -1.0625 64.703125 -1.90625 C 55.816406 1.050781 48.414062 -0.425781 42.5 -6.34375 C 37 -12.257812 33.40625 -19.445312 31.71875 -27.90625 C 30.03125 -36.363281 28.757812 -44.398438 27.90625 -52.015625 C 25.375 -70.617188 23.472656 -88.90625 22.203125 -106.875 C 20.929688 -124.851562 20.085938 -142.9375 19.671875 -161.125 C 18.398438 -198.757812 17.765625 -236.394531 17.765625 -274.03125 C 17.335938 -292.21875 17.019531 -310.613281 16.8125 -329.21875 C 16.601562 -347.832031 18.1875 -366.226562 21.5625 -384.40625 C 21.988281 -386.101562 23.257812 -386.953125 25.375 -386.953125 C 27.488281 -386.953125 28.757812 -386.101562 29.1875 -384.40625 C 31.289062 -371.71875 32.554688 -358.289062 32.984375 -344.125 C 33.410156 -329.957031 33.832031 -316.109375 34.25 -302.578125 C 35.09375 -302.578125 35.726562 -300.25 36.15625 -295.59375 C 36.582031 -290.945312 37.003906 -288.625 37.421875 -288.625 L 37.421875 -303.21875 C 37.421875 -310.832031 37.316406 -318.335938 37.109375 -325.734375 C 36.898438 -333.140625 36.796875 -340.644531 36.796875 -348.25 C 36.367188 -354.59375 36.257812 -361.144531 36.46875 -367.90625 C 36.6875 -374.675781 38.273438 -381.023438 41.234375 -386.953125 C 41.234375 -394.140625 44.828125 -399.847656 52.015625 -404.078125 C 62.160156 -410.421875 72.734375 -411.898438 83.734375 -408.515625 C 96.421875 -405.984375 105.085938 -398.582031 109.734375 -386.3125 C 113.546875 -381.664062 115.875 -375.957031 116.71875 -369.1875 C 117.5625 -361.570312 118.617188 -353.851562 119.890625 -346.03125 C 121.160156 -338.207031 122.429688 -330.28125 123.703125 -322.25 C 129.191406 -289.6875 135.320312 -255.640625 142.09375 -220.109375 C 148.863281 -184.585938 155.84375 -150.757812 163.03125 -118.625 C 167.257812 -136.382812 171.273438 -154.144531 175.078125 -171.90625 C 178.878906 -189.664062 182.894531 -207.425781 187.125 -225.1875 C 193.050781 -252.675781 199.1875 -280.054688 205.53125 -307.328125 C 211.875 -334.609375 216.945312 -361.992188 220.75 -389.484375 C 221.59375 -392.867188 223.492188 -395.9375 226.453125 -398.6875 C 229.421875 -401.4375 232.59375 -403.019531 235.96875 -403.4375 C 246.539062 -406.40625 255.847656 -405.5625 263.890625 -400.90625 C 268.535156 -404.289062 273.816406 -405.984375 279.734375 -405.984375 C 285.660156 -405.984375 290.523438 -403.867188 294.328125 -399.640625 C 304.054688 -389.910156 311.878906 -378.910156 317.796875 -366.640625 C 323.722656 -354.378906 328.164062 -341.695312 331.125 -328.59375 C 334.507812 -314.207031 337.578125 -299.929688 340.328125 -285.765625 C 343.078125 -271.597656 345.71875 -257.328125 348.25 -242.953125 C 349.101562 -237.453125 350.054688 -231.953125 351.109375 -226.453125 C 352.160156 -220.960938 352.898438 -215.46875 353.328125 -209.96875 C 354.597656 -205.3125 355.757812 -200.65625 356.8125 -196 C 357.875 -191.351562 358.828125 -186.707031 359.671875 -182.0625 C 361.785156 -171.488281 363.789062 -161.125 365.6875 -150.96875 C 367.59375 -140.820312 369.601562 -130.460938 371.71875 -119.890625 C 373.832031 -110.585938 375.84375 -101.390625 377.75 -92.296875 C 379.65625 -83.203125 381.03125 -74.003906 381.875 -64.703125 Z M 118.625 -237.25 C 119.894531 -234.28125 120.953125 -231.632812 121.796875 -229.3125 C 122.640625 -226.988281 123.90625 -224.769531 125.59375 -222.65625 C 122.632812 -238.726562 119.25 -257.226562 115.4375 -278.15625 C 111.632812 -299.09375 108.253906 -317.597656 105.296875 -333.671875 C 104.878906 -338.316406 104.242188 -343.070312 103.390625 -347.9375 C 102.546875 -352.800781 101.488281 -357.769531 100.21875 -362.84375 C 97.6875 -361.15625 94.726562 -359.882812 91.34375 -359.03125 C 91.34375 -358.1875 91.132812 -357.34375 90.71875 -356.5 C 95.363281 -337.050781 99.90625 -317.8125 104.34375 -298.78125 C 108.789062 -279.75 113.128906 -260.296875 117.359375 -240.421875 C 118.203125 -239.566406 118.625 -238.507812 118.625 -237.25 Z M 215.046875 -140.828125 C 220.960938 -164.929688 227.300781 -189.035156 234.0625 -213.140625 C 240.832031 -237.242188 248.238281 -261.140625 256.28125 -284.828125 C 255.851562 -286.929688 255.425781 -289.039062 255 -291.15625 C 254.582031 -293.269531 253.953125 -295.382812 253.109375 -297.5 C 246.335938 -276.78125 239.988281 -255.742188 234.0625 -234.390625 C 228.144531 -213.035156 222.648438 -191.570312 217.578125 -170 C 217.160156 -165.351562 216.421875 -160.597656 215.359375 -155.734375 C 214.304688 -150.867188 213.351562 -146.109375 212.5 -141.453125 C 212.925781 -141.035156 213.5625 -140.828125 214.40625 -140.828125 Z M 215.046875 -140.828125 "/></g></g></g><g fill="#458cf4" fill-opacity="1"><g transform="translate(351.03868, 605.317355)"><g/></g></g><g fill="#458cf4" fill-opacity="1"><g transform="translate(420.180121, 605.317355)"><g><path d="M 352.6875 -256.90625 C 348.46875 -245.914062 343.925781 -235.132812 339.0625 -224.5625 C 334.195312 -213.988281 328.59375 -203.835938 322.25 -194.109375 C 306.175781 -167.460938 287.144531 -144.203125 265.15625 -124.328125 C 259.65625 -118.410156 253.734375 -112.488281 247.390625 -106.5625 C 241.046875 -100.644531 234.28125 -95.363281 227.09375 -90.71875 C 215.675781 -82.675781 203.726562 -75.484375 191.25 -69.140625 C 178.78125 -62.796875 165.78125 -57.929688 152.25 -54.546875 L 145.265625 -52.65625 C 138.492188 -50.957031 131.515625 -49.472656 124.328125 -48.203125 C 117.140625 -46.941406 109.953125 -46.3125 102.765625 -46.3125 C 104.878906 -44.195312 109.53125 -43.347656 116.71875 -43.765625 C 123.90625 -44.191406 131.09375 -45.035156 138.28125 -46.296875 C 145.476562 -47.566406 149.921875 -48.414062 151.609375 -48.84375 C 166.410156 -52.644531 180.578125 -58.144531 194.109375 -65.34375 C 200.453125 -68.300781 209.753906 -73.898438 222.015625 -82.140625 C 234.285156 -90.390625 247.820312 -101.28125 262.625 -114.8125 C 277.425781 -128.34375 292.015625 -144.203125 306.390625 -162.390625 C 320.765625 -180.578125 333.238281 -201.300781 343.8125 -224.5625 C 344.65625 -222.863281 345.503906 -221.59375 346.359375 -220.75 C 345.085938 -215.675781 343.921875 -210.601562 342.859375 -205.53125 C 341.804688 -200.457031 340.429688 -195.378906 338.734375 -190.296875 L 336.84375 -184.59375 C 336.414062 -183.320312 335.882812 -182.050781 335.25 -180.78125 C 334.613281 -179.519531 333.875 -178.253906 333.03125 -176.984375 C 322.457031 -160.492188 310.929688 -144.953125 298.453125 -130.359375 C 285.984375 -115.765625 272.132812 -102.335938 256.90625 -90.078125 C 243.375 -79.503906 228.992188 -70.195312 213.765625 -62.15625 C 198.546875 -54.125 182.265625 -47.992188 164.921875 -43.765625 C 148.429688 -39.960938 131.726562 -38.0625 114.8125 -38.0625 C 112.28125 -38.476562 109.210938 -39.210938 105.609375 -40.265625 C 102.015625 -41.328125 100.007812 -43.34375 99.59375 -46.3125 C 93.25 -46.726562 87.007812 -47.675781 80.875 -49.15625 C 74.75 -50.632812 68.722656 -53.066406 62.796875 -56.453125 C 48.835938 -64.492188 37.632812 -76.546875 29.1875 -92.609375 C 12.269531 -110.796875 2.328125 -132.15625 -0.640625 -156.6875 C -4.441406 -182.0625 -1.269531 -206.585938 8.875 -230.265625 C 19.03125 -253.953125 32.140625 -275.097656 48.203125 -293.703125 C 63.003906 -310.617188 79.707031 -325.628906 98.3125 -338.734375 C 116.925781 -351.847656 136.804688 -361.785156 157.953125 -368.546875 C 158.796875 -372.773438 161.546875 -375.523438 166.203125 -376.796875 C 189.035156 -382.722656 212.710938 -387.054688 237.234375 -389.796875 C 261.765625 -392.546875 285.660156 -391.597656 308.921875 -386.953125 C 314.421875 -386.109375 320.550781 -384.519531 327.3125 -382.1875 C 334.082031 -379.863281 339.582031 -376.476562 343.8125 -372.03125 C 348.039062 -367.59375 348.890625 -361.570312 346.359375 -353.96875 C 345.085938 -350.582031 342.96875 -348.253906 340 -346.984375 C 337.039062 -345.710938 333.875 -344.65625 330.5 -343.8125 C 331.34375 -342.125 331.128906 -340.328125 329.859375 -338.421875 C 328.585938 -336.515625 326.894531 -335.5625 324.78125 -335.5625 C 318.019531 -335.988281 311.039062 -335.988281 303.84375 -335.5625 C 296.65625 -335.144531 289.46875 -335.144531 282.28125 -335.5625 C 275.9375 -335.5625 269.59375 -335.347656 263.25 -334.921875 C 256.90625 -334.503906 250.5625 -333.875 244.21875 -333.03125 C 218.425781 -329.226562 193.898438 -321.191406 170.640625 -308.921875 C 129.617188 -286.515625 99.378906 -254.375 79.921875 -212.5 C 75.273438 -202.351562 71.257812 -191.570312 67.875 -180.15625 C 64.488281 -168.738281 62.796875 -157.320312 62.796875 -145.90625 C 62.378906 -136.59375 63.753906 -127.285156 66.921875 -117.984375 C 70.097656 -108.679688 75.488281 -101.703125 83.09375 -97.046875 L 91.34375 -95.15625 C 98.957031 -93.882812 106.566406 -93.566406 114.171875 -94.203125 C 121.785156 -94.835938 129.398438 -96 137.015625 -97.6875 C 139.128906 -98.53125 141.347656 -99.375 143.671875 -100.21875 C 146.003906 -101.070312 148.015625 -101.707031 149.703125 -102.125 C 170.421875 -111.007812 189.03125 -123.488281 205.53125 -139.5625 C 214.832031 -148.4375 223.285156 -157.84375 230.890625 -167.78125 C 238.503906 -177.71875 245.695312 -187.972656 252.46875 -198.546875 C 255.851562 -203.617188 258.921875 -208.691406 261.671875 -213.765625 C 264.421875 -218.847656 267.273438 -223.925781 270.234375 -229 L 267.6875 -229 C 260.925781 -227.300781 254.054688 -225.816406 247.078125 -224.546875 C 240.097656 -223.285156 233.015625 -221.8125 225.828125 -220.125 C 211.453125 -217.15625 197.285156 -213.554688 183.328125 -209.328125 C 169.367188 -205.097656 155.203125 -201.082031 140.828125 -197.28125 C 131.941406 -195.164062 124.535156 -196.960938 118.609375 -202.671875 C 112.691406 -208.378906 109.734375 -215.351562 109.734375 -223.59375 C 109.734375 -231.84375 113.753906 -238.082031 121.796875 -242.3125 L 125.59375 -244.21875 C 125.175781 -249.289062 126.128906 -254.15625 128.453125 -258.8125 C 130.773438 -263.46875 135.109375 -266.640625 141.453125 -268.328125 C 141.878906 -268.753906 142.410156 -268.96875 143.046875 -268.96875 C 143.679688 -268.96875 144.207031 -269.175781 144.625 -269.59375 C 159.007812 -273.820312 173.492188 -277.835938 188.078125 -281.640625 C 202.671875 -285.453125 217.15625 -289.050781 231.53125 -292.4375 C 246.332031 -295.8125 261.023438 -299.398438 275.609375 -303.203125 C 290.203125 -307.015625 304.898438 -309.769531 319.703125 -311.46875 C 327.316406 -312.3125 334.613281 -310.828125 341.59375 -307.015625 C 348.570312 -303.210938 353.117188 -297.503906 355.234375 -289.890625 C 356.921875 -284.398438 357.445312 -278.796875 356.8125 -273.078125 C 356.175781 -267.367188 354.800781 -261.976562 352.6875 -256.90625 Z M 352.6875 -256.90625 "/></g></g></g></svg>